<svg xmlns="http://www.w3.org/2000/svg" xmlns:xlink="http://www.w3.org/1999/xlink" width="1080" zoomAndPan="magnify" viewBox="0 0 810 809.999993" height="1080" preserveAspectRatio="xMidYMid meet" version="1.0"><defs><clipPath id="db0e295a35"><path d="M 0 135.167969 L 810 135.167969 L 810 675.167969 L 0 675.167969 Z M 0 135.167969 " clip-rule="nonzero"/></clipPath></defs><g clip-path="url(#db0e295a35)"><path fill="#ffffff" d="M 793.257812 320.765625 C 782.523438 311.59375 768.308594 307.613281 754.003906 309.867188 C 731.4375 313.71875 714.421875 334.71875 714.421875 358.707031 L 714.421875 409.75 C 714.421875 411.484375 713.003906 412.902344 711.269531 412.902344 L 637.996094 412.902344 C 636.511719 412.902344 635.308594 411.699219 635.308594 410.214844 L 635.308594 303.539062 C 635.308594 287.097656 621.992188 273.769531 605.5625 273.769531 L 538.117188 273.769531 C 536.007812 273.769531 534.296875 272.0625 534.296875 269.949219 L 534.296875 221.65625 C 534.296875 208.222656 523.414062 197.332031 509.988281 197.332031 L 417.085938 197.332031 C 415.597656 197.332031 414.386719 196.121094 414.386719 194.628906 L 414.386719 172.03125 C 414.386719 170.539062 415.597656 169.328125 417.085938 169.328125 L 478.578125 169.328125 C 487.953125 169.328125 495.554688 161.722656 495.554688 152.34375 C 495.554688 142.960938 487.953125 135.355469 478.578125 135.355469 L 232.878906 135.355469 C 223.503906 135.355469 215.902344 142.960938 215.902344 152.34375 C 215.902344 161.722656 223.503906 169.328125 232.878906 169.328125 L 294.371094 169.328125 C 295.863281 169.328125 297.070312 170.539062 297.070312 172.03125 L 297.070312 194.628906 C 297.070312 196.121094 295.863281 197.332031 294.371094 197.332031 L 189.148438 197.332031 C 182.445312 197.332031 177.007812 202.761719 176.996094 209.46875 L 176.917969 248.804688 L 96.015625 248.972656 C 77.457031 249.304688 62.363281 264.546875 62.363281 282.945312 L 62.363281 378.273438 C 62.363281 380.585938 60.488281 382.460938 58.175781 382.460938 L 38.125 382.460938 C 35.816406 382.460938 33.941406 380.585938 33.941406 378.273438 L 33.941406 294.457031 C 33.941406 285.074219 26.339844 277.472656 16.964844 277.472656 C 7.585938 277.472656 -0.0117188 285.074219 -0.0117188 294.457031 L -0.0117188 540.320312 C -0.0117188 549.703125 7.585938 557.304688 16.964844 557.304688 C 26.339844 557.304688 33.941406 549.703125 33.941406 540.320312 L 33.941406 456.488281 C 33.941406 454.175781 35.816406 452.300781 38.125 452.300781 L 58.175781 452.300781 C 60.488281 452.300781 62.363281 454.175781 62.363281 456.488281 L 62.363281 547.050781 C 62.363281 560.472656 73.226562 571.355469 86.636719 571.375 L 171.171875 571.5 C 173.28125 571.503906 175.292969 572.371094 176.742188 573.902344 L 262.429688 664.46875 C 268.796875 671.15625 277.742188 675.003906 286.957031 675.003906 L 613.71875 675.003906 C 627.144531 675.003906 638.027344 664.113281 638.027344 650.679688 L 638.027344 544.574219 C 638.027344 542.773438 639.488281 541.316406 641.285156 541.316406 L 711.164062 541.316406 C 712.964844 541.316406 714.421875 542.773438 714.421875 544.574219 L 714.421875 594.480469 C 714.421875 608.515625 720.582031 621.785156 731.324219 630.878906 C 742.082031 639.953125 756.25 643.816406 769.992188 641.511719 C 792.796875 637.960938 809.996094 616.960938 809.996094 592.625 L 809.996094 357.015625 C 809.996094 343.078125 803.894531 329.875 793.257812 320.765625 Z M 776.042969 592.625 C 776.042969 600.355469 771.203125 606.941406 764.570312 607.96875 C 758.992188 608.929688 755.078125 606.492188 753.246094 604.933594 C 750.148438 602.3125 748.375 598.496094 748.375 594.480469 L 748.375 531.667969 C 748.375 518.230469 737.488281 507.339844 724.0625 507.339844 L 628.386719 507.339844 C 614.960938 507.339844 604.078125 518.230469 604.078125 531.667969 L 604.078125 637.5625 C 604.078125 639.476562 602.523438 641.03125 600.609375 641.03125 L 293.933594 641.078125 C 289.542969 641.078125 285.347656 639.273438 282.328125 636.082031 L 199.390625 548.429688 C 193.058594 541.429688 183.890625 537.417969 174.234375 537.417969 L 105.964844 537.417969 C 100.636719 537.417969 96.316406 533.09375 96.316406 527.761719 L 96.347656 292.578125 C 96.347656 287.253906 100.65625 282.9375 105.976562 282.925781 L 177.25 282.777344 C 195.8125 282.449219 210.90625 267.203125 210.90625 248.804688 L 211.472656 229.808594 L 500.347656 231.304688 L 500.347656 283.417969 C 500.347656 296.855469 511.230469 307.746094 524.65625 307.746094 L 597.386719 307.746094 C 599.570312 307.746094 601.359375 309.535156 601.359375 311.71875 L 601.359375 422.550781 C 601.359375 435.984375 612.242188 446.875 625.667969 446.875 L 724.0625 446.875 C 737.488281 446.875 748.375 435.984375 748.375 422.550781 L 748.375 358.707031 C 748.375 351.308594 753.464844 344.421875 759.507812 343.394531 C 765.367188 342.382812 769.335938 345.003906 771.203125 346.597656 C 774.277344 349.234375 776.042969 353.03125 776.042969 357.015625 Z M 776.042969 592.625 " fill-opacity="1" fill-rule="nonzero"/></g></svg>