<svg xmlns="http://www.w3.org/2000/svg" xmlns:xlink="http://www.w3.org/1999/xlink" width="1080" zoomAndPan="magnify" viewBox="0 0 810 809.999993" height="1080" preserveAspectRatio="xMidYMid meet" version="1.0"><path fill="#ffffff" d="M 646.632812 88.578125 C 638.359375 80.496094 625.09375 80.648438 617.023438 88.910156 C 608.929688 97.171875 609.074219 110.4375 617.347656 118.53125 L 694.421875 193.886719 L 694.421875 292.039062 C 694.421875 293.894531 695.160156 295.675781 696.484375 296.992188 L 768.113281 368 L 768.113281 524.160156 C 768.113281 542.160156 763.082031 600.9375 698.308594 600.9375 C 633.535156 600.9375 628.496094 542.160156 628.496094 524.160156 L 628.496094 426.421875 C 628.496094 341.144531 580.921875 312.820312 526.90625 304.210938 L 526.90625 41.886719 C 526.90625 18.757812 508.15625 0 485.019531 0 L 117.351562 0 C 94.230469 0 75.472656 18.757812 75.472656 41.886719 L 75.472656 723.691406 L 27.917969 723.691406 C 12.5 723.691406 0 736.210938 0 751.625 L 0 803.023438 C 0 806.859375 3.132812 810 6.976562 810 L 595.402344 810 C 599.257812 810 602.378906 806.859375 602.378906 803.023438 L 602.378906 751.625 C 602.378906 736.210938 589.878906 723.691406 574.460938 723.691406 L 526.894531 723.691406 L 526.894531 346.660156 C 570.546875 355.292969 586.601562 378.882812 586.601562 426.421875 L 586.601562 524.160156 C 586.601562 568.222656 610.128906 642.835938 698.300781 642.835938 C 786.472656 642.835938 810 568.234375 810 524.160156 L 810 257.128906 C 810 251.488281 807.722656 246.085938 803.699219 242.152344 Z M 474.433594 369.980469 C 474.433594 373.84375 471.320312 376.964844 467.46875 376.964844 L 134.910156 376.964844 C 131.058594 376.964844 127.933594 373.832031 127.933594 369.980469 L 127.933594 93.285156 C 127.933594 89.433594 131.066406 86.308594 134.910156 86.308594 L 467.460938 86.308594 C 471.320312 86.308594 474.425781 89.441406 474.425781 93.285156 L 474.425781 369.980469 Z M 474.433594 369.980469 " fill-opacity="1" fill-rule="nonzero"/></svg>