<svg xmlns="http://www.w3.org/2000/svg" xmlns:xlink="http://www.w3.org/1999/xlink" width="1080" zoomAndPan="magnify" viewBox="0 0 810 809.999993" height="1080" preserveAspectRatio="xMidYMid meet" version="1.0"><path fill="#ffffff" d="M 405 0 C 398.371094 0 391.746094 0.164062 385.128906 0.488281 C 378.507812 0.8125 371.898438 1.300781 365.304688 1.949219 C 358.707031 2.601562 352.128906 3.410156 345.574219 4.382812 C 339.019531 5.355469 332.488281 6.488281 325.988281 7.78125 C 319.488281 9.074219 313.023438 10.527344 306.59375 12.136719 C 300.164062 13.746094 293.777344 15.515625 287.433594 17.4375 C 281.09375 19.363281 274.800781 21.441406 268.558594 23.675781 C 262.320312 25.90625 256.136719 28.292969 250.011719 30.828125 C 243.890625 33.367188 237.832031 36.050781 231.839844 38.882812 C 225.847656 41.71875 219.929688 44.699219 214.085938 47.820312 C 208.238281 50.945312 202.472656 54.210938 196.789062 57.621094 C 191.101562 61.027344 185.503906 64.574219 179.992188 68.253906 C 174.484375 71.9375 169.066406 75.753906 163.742188 79.699219 C 158.417969 83.648438 153.195312 87.726562 148.070312 91.929688 C 142.945312 96.136719 137.929688 100.464844 133.019531 104.914062 C 128.109375 109.367188 123.308594 113.933594 118.621094 118.621094 C 113.933594 123.308594 109.367188 128.109375 104.914062 133.019531 C 100.464844 137.929688 96.136719 142.945312 91.929688 148.070312 C 87.726562 153.195312 83.648438 158.417969 79.699219 163.742188 C 75.753906 169.066406 71.9375 174.484375 68.253906 179.992188 C 64.574219 185.503906 61.027344 191.101562 57.621094 196.789062 C 54.210938 202.472656 50.945312 208.238281 47.820312 214.085938 C 44.699219 219.929688 41.71875 225.847656 38.882812 231.839844 C 36.050781 237.832031 33.367188 243.890625 30.828125 250.011719 C 28.292969 256.136719 25.90625 262.320312 23.675781 268.558594 C 21.441406 274.800781 19.363281 281.09375 17.4375 287.433594 C 15.515625 293.777344 13.746094 300.164062 12.136719 306.59375 C 10.527344 313.023438 9.074219 319.488281 7.78125 325.988281 C 6.488281 332.488281 5.355469 339.019531 4.382812 345.574219 C 3.410156 352.128906 2.601562 358.707031 1.949219 365.304688 C 1.300781 371.898438 0.8125 378.507812 0.488281 385.128906 C 0.164062 391.746094 0 398.371094 0 405 C 0 411.628906 0.164062 418.253906 0.488281 424.871094 C 0.8125 431.492188 1.300781 438.101562 1.949219 444.695312 C 2.601562 451.292969 3.410156 457.871094 4.382812 464.425781 C 5.355469 470.980469 6.488281 477.511719 7.78125 484.011719 C 9.074219 490.511719 10.527344 496.976562 12.136719 503.40625 C 13.746094 509.835938 15.515625 516.222656 17.4375 522.566406 C 19.363281 528.90625 21.441406 535.199219 23.675781 541.441406 C 25.90625 547.679688 28.292969 553.863281 30.828125 559.988281 C 33.367188 566.109375 36.050781 572.167969 38.882812 578.160156 C 41.71875 584.152344 44.699219 590.070312 47.820312 595.914062 C 50.945312 601.761719 54.210938 607.527344 57.621094 613.210938 C 61.027344 618.898438 64.574219 624.496094 68.253906 630.007812 C 71.9375 635.515625 75.753906 640.933594 79.699219 646.257812 C 83.648438 651.582031 87.726562 656.804688 91.929688 661.929688 C 96.136719 667.054688 100.464844 672.070312 104.914062 676.980469 C 109.367188 681.890625 113.933594 686.691406 118.621094 691.378906 C 123.308594 696.066406 128.109375 700.632812 133.019531 705.085938 C 137.929688 709.535156 142.945312 713.863281 148.070312 718.070312 C 153.195312 722.273438 158.417969 726.351562 163.742188 730.300781 C 169.066406 734.246094 174.484375 738.0625 179.992188 741.746094 C 185.503906 745.425781 191.101562 748.972656 196.789062 752.378906 C 202.472656 755.789062 208.238281 759.054688 214.085938 762.179688 C 219.929688 765.300781 225.847656 768.28125 231.839844 771.117188 C 237.832031 773.949219 243.890625 776.632812 250.011719 779.171875 C 256.136719 781.707031 262.320312 784.09375 268.558594 786.324219 C 274.800781 788.558594 281.09375 790.636719 287.433594 792.5625 C 293.777344 794.484375 300.164062 796.253906 306.59375 797.863281 C 313.023438 799.472656 319.488281 800.925781 325.988281 802.21875 C 332.488281 803.511719 339.019531 804.644531 345.574219 805.617188 C 352.128906 806.589844 358.707031 807.398438 365.304688 808.050781 C 371.898438 808.699219 378.507812 809.1875 385.128906 809.511719 C 391.746094 809.835938 398.371094 810 405 810 C 411.628906 810 418.253906 809.835938 424.871094 809.511719 C 431.492188 809.1875 438.101562 808.699219 444.695312 808.050781 C 451.292969 807.398438 457.871094 806.589844 464.425781 805.617188 C 470.980469 804.644531 477.511719 803.511719 484.011719 802.21875 C 490.511719 800.925781 496.976562 799.472656 503.40625 797.863281 C 509.835938 796.253906 516.222656 794.484375 522.566406 792.5625 C 528.90625 790.636719 535.199219 788.558594 541.441406 786.324219 C 547.679688 784.09375 553.863281 781.707031 559.988281 779.171875 C 566.109375 776.632812 572.167969 773.949219 578.160156 771.117188 C 584.152344 768.28125 590.070312 765.300781 595.914062 762.179688 C 601.761719 759.054688 607.527344 755.789062 613.210938 752.378906 C 618.898438 748.972656 624.496094 745.425781 630.007812 741.746094 C 635.515625 738.0625 640.933594 734.246094 646.257812 730.300781 C 651.582031 726.351562 656.804688 722.273438 661.929688 718.070312 C 667.054688 713.863281 672.070312 709.535156 676.980469 705.085938 C 681.890625 700.632812 686.691406 696.066406 691.378906 691.378906 C 696.066406 686.691406 700.632812 681.890625 705.085938 676.980469 C 709.535156 672.070312 713.863281 667.054688 718.070312 661.929688 C 722.273438 656.804688 726.351562 651.582031 730.300781 646.257812 C 734.246094 640.933594 738.0625 635.515625 741.746094 630.007812 C 745.425781 624.496094 748.972656 618.898438 752.378906 613.210938 C 755.789062 607.527344 759.054688 601.761719 762.179688 595.914062 C 765.300781 590.070312 768.28125 584.152344 771.117188 578.160156 C 773.949219 572.167969 776.632812 566.109375 779.171875 559.988281 C 781.707031 553.863281 784.09375 547.679688 786.324219 541.441406 C 788.558594 535.199219 790.636719 528.90625 792.5625 522.566406 C 794.484375 516.222656 796.253906 509.835938 797.863281 503.40625 C 799.472656 496.976562 800.925781 490.511719 802.21875 484.011719 C 803.511719 477.511719 804.644531 470.980469 805.617188 464.425781 C 806.589844 457.871094 807.398438 451.292969 808.050781 444.695312 C 808.699219 438.101562 809.1875 431.492188 809.511719 424.871094 C 809.835938 418.253906 810 411.628906 810 405 C 810 398.371094 809.835938 391.75 809.511719 385.128906 C 809.183594 378.507812 808.695312 371.902344 808.046875 365.304688 C 807.394531 358.707031 806.582031 352.132812 805.609375 345.578125 C 804.636719 339.019531 803.503906 332.492188 802.210938 325.992188 C 800.914062 319.492188 799.464844 313.027344 797.851562 306.597656 C 796.242188 300.167969 794.472656 293.78125 792.550781 287.441406 C 790.625 281.097656 788.546875 274.808594 786.3125 268.566406 C 784.078125 262.324219 781.695312 256.144531 779.15625 250.019531 C 776.621094 243.898438 773.933594 237.839844 771.101562 231.847656 C 768.265625 225.859375 765.289062 219.941406 762.164062 214.09375 C 759.039062 208.25 755.773438 202.484375 752.363281 196.800781 C 748.957031 191.113281 745.410156 185.515625 741.730469 180.007812 C 738.046875 174.496094 734.230469 169.078125 730.285156 163.753906 C 726.335938 158.429688 722.257812 153.207031 718.054688 148.085938 C 713.847656 142.960938 709.519531 137.945312 705.070312 133.03125 C 700.617188 128.121094 696.050781 123.324219 691.363281 118.636719 C 686.675781 113.949219 681.878906 109.382812 676.96875 104.929688 C 672.054688 100.480469 667.039062 96.152344 661.914062 91.945312 C 656.792969 87.742188 651.570312 83.664062 646.246094 79.714844 C 640.921875 75.769531 635.503906 71.953125 629.992188 68.269531 C 624.484375 64.589844 618.886719 61.042969 613.199219 57.636719 C 607.515625 54.226562 601.75 50.960938 595.90625 47.835938 C 590.058594 44.710938 584.140625 41.734375 578.152344 38.898438 C 572.160156 36.066406 566.101562 33.378906 559.980469 30.84375 C 553.855469 28.304688 547.671875 25.921875 541.433594 23.6875 C 535.191406 21.453125 528.902344 19.375 522.558594 17.449219 C 516.21875 15.527344 509.832031 13.757812 503.402344 12.148438 C 496.972656 10.535156 490.507812 9.085938 484.007812 7.789062 C 477.507812 6.496094 470.980469 5.363281 464.421875 4.390625 C 457.867188 3.417969 451.292969 2.605469 444.695312 1.953125 C 438.097656 1.304688 431.492188 0.816406 424.871094 0.492188 C 418.25 0.164062 411.628906 0 405 0 Z M 218.445312 205.15625 L 591.554688 205.15625 C 593.523438 205.15625 595.492188 205.242188 597.453125 205.417969 C 599.417969 205.589844 601.371094 205.851562 603.308594 206.199219 C 605.25 206.546875 607.171875 206.980469 609.070312 207.496094 C 610.972656 208.015625 612.847656 208.617188 614.695312 209.300781 C 616.542969 209.984375 618.359375 210.75 620.140625 211.597656 C 621.917969 212.445312 623.660156 213.367188 625.355469 214.367188 C 627.054688 215.367188 628.703125 216.441406 630.308594 217.589844 C 631.910156 218.734375 633.460938 219.953125 634.953125 221.238281 C 636.449219 222.519531 637.882812 223.871094 639.257812 225.28125 C 640.632812 226.695312 641.941406 228.164062 643.1875 229.695312 C 644.429688 231.222656 645.605469 232.804688 646.707031 234.4375 C 647.8125 236.070312 648.839844 237.746094 649.792969 239.472656 C 650.75 241.195312 651.625 242.960938 652.421875 244.761719 C 653.21875 246.566406 653.9375 248.398438 654.570312 250.265625 C 655.207031 252.128906 655.757812 254.019531 656.222656 255.9375 C 656.691406 257.851562 657.070312 259.78125 657.367188 261.730469 C 652.050781 264.640625 447.019531 382.851562 433.476562 390.570312 C 431.3125 391.796875 429.082031 392.875 426.78125 393.8125 C 424.480469 394.746094 422.125 395.53125 419.722656 396.164062 C 417.320312 396.796875 414.886719 397.273438 412.421875 397.59375 C 409.960938 397.910156 407.484375 398.070312 405 398.070312 C 402.515625 398.070312 400.039062 397.910156 397.578125 397.59375 C 395.113281 397.273438 392.679688 396.796875 390.277344 396.164062 C 387.875 395.53125 385.519531 394.746094 383.21875 393.8125 C 380.917969 392.875 378.6875 391.796875 376.523438 390.570312 C 363.234375 382.976562 157.695312 265.90625 152.632812 262.742188 C 152.898438 260.769531 153.25 258.816406 153.691406 256.875 C 154.132812 254.933594 154.65625 253.015625 155.269531 251.121094 C 155.882812 249.230469 156.578125 247.367188 157.359375 245.535156 C 158.140625 243.707031 159 241.914062 159.941406 240.160156 C 160.882812 238.40625 161.898438 236.699219 162.996094 235.035156 C 164.089844 233.375 165.257812 231.765625 166.496094 230.207031 C 167.734375 228.652344 169.042969 227.152344 170.417969 225.714844 C 171.789062 224.273438 173.226562 222.898438 174.722656 221.589844 C 176.222656 220.277344 177.773438 219.039062 179.382812 217.867188 C 180.992188 216.695312 182.652344 215.597656 184.359375 214.578125 C 186.066406 213.554688 187.816406 212.613281 189.609375 211.75 C 191.402344 210.882812 193.230469 210.101562 195.09375 209.402344 C 196.957031 208.703125 198.847656 208.085938 200.765625 207.558594 C 202.683594 207.027344 204.621094 206.582031 206.578125 206.226562 C 208.535156 205.871094 210.507812 205.605469 212.488281 205.425781 C 214.472656 205.246094 216.457031 205.15625 218.445312 205.15625 Z M 658.125 538.269531 C 658.125 539.359375 658.09375 540.449219 658.039062 541.535156 C 657.984375 542.625 657.90625 543.710938 657.796875 544.792969 C 657.6875 545.875 657.554688 546.957031 657.394531 548.035156 C 657.234375 549.113281 657.046875 550.183594 656.832031 551.253906 C 656.617188 552.320312 656.378906 553.382812 656.113281 554.4375 C 655.847656 555.496094 655.558594 556.542969 655.238281 557.585938 C 654.921875 558.628906 654.582031 559.660156 654.214844 560.6875 C 653.847656 561.710938 653.453125 562.726562 653.035156 563.734375 C 652.617188 564.738281 652.175781 565.734375 651.710938 566.71875 C 651.246094 567.703125 650.753906 568.675781 650.242188 569.636719 C 649.726562 570.597656 649.1875 571.542969 648.628906 572.476562 C 648.070312 573.410156 647.484375 574.332031 646.878906 575.238281 C 646.273438 576.140625 645.648438 577.03125 645 577.90625 C 644.351562 578.78125 643.679688 579.640625 642.988281 580.480469 C 642.296875 581.324219 641.585938 582.148438 640.855469 582.953125 C 640.125 583.761719 639.371094 584.550781 638.601562 585.320312 C 637.832031 586.089844 637.042969 586.839844 636.238281 587.574219 C 635.429688 588.304688 634.605469 589.015625 633.765625 589.707031 C 632.921875 590.398438 632.0625 591.066406 631.1875 591.714844 C 630.316406 592.367188 629.425781 592.992188 628.519531 593.597656 C 627.613281 594.203125 626.695312 594.785156 625.761719 595.347656 C 624.828125 595.90625 623.878906 596.445312 622.917969 596.957031 C 621.957031 597.472656 620.984375 597.960938 620.003906 598.425781 C 619.019531 598.894531 618.023438 599.335938 617.015625 599.753906 C 616.011719 600.171875 614.996094 600.5625 613.96875 600.929688 C 612.945312 601.296875 611.910156 601.640625 610.867188 601.957031 C 609.828125 602.273438 608.777344 602.566406 607.722656 602.832031 C 606.664062 603.097656 605.601562 603.335938 604.535156 603.550781 C 603.46875 603.761719 602.394531 603.949219 601.316406 604.109375 C 600.238281 604.273438 599.160156 604.40625 598.074219 604.515625 C 596.992188 604.621094 595.90625 604.703125 594.820312 604.757812 C 593.730469 604.8125 592.640625 604.839844 591.554688 604.84375 L 218.445312 604.84375 C 217.359375 604.839844 216.269531 604.8125 215.179688 604.757812 C 214.09375 604.703125 213.007812 604.621094 211.925781 604.515625 C 210.839844 604.40625 209.761719 604.273438 208.683594 604.109375 C 207.605469 603.949219 206.53125 603.761719 205.464844 603.550781 C 204.398438 603.335938 203.335938 603.097656 202.277344 602.832031 C 201.222656 602.566406 200.171875 602.273438 199.132812 601.957031 C 198.089844 601.640625 197.054688 601.296875 196.03125 600.929688 C 195.003906 600.5625 193.988281 600.171875 192.984375 599.753906 C 191.976562 599.335938 190.980469 598.894531 190 598.425781 C 189.015625 597.960938 188.042969 597.472656 187.082031 596.957031 C 186.121094 596.445312 185.171875 595.90625 184.238281 595.347656 C 183.304688 594.785156 182.386719 594.203125 181.480469 593.597656 C 180.574219 592.992188 179.683594 592.367188 178.8125 591.714844 C 177.9375 591.066406 177.078125 590.398438 176.234375 589.707031 C 175.394531 589.015625 174.570312 588.304688 173.761719 587.574219 C 172.957031 586.839844 172.167969 586.089844 171.398438 585.320312 C 170.628906 584.550781 169.875 583.761719 169.144531 582.953125 C 168.414062 582.148438 167.703125 581.324219 167.011719 580.480469 C 166.320312 579.640625 165.648438 578.78125 165 577.90625 C 164.351562 577.03125 163.726562 576.140625 163.121094 575.238281 C 162.515625 574.332031 161.929688 573.410156 161.371094 572.476562 C 160.8125 571.542969 160.273438 570.597656 159.757812 569.636719 C 159.246094 568.675781 158.753906 567.703125 158.289062 566.71875 C 157.824219 565.734375 157.382812 564.738281 156.964844 563.734375 C 156.546875 562.726562 156.152344 561.710938 155.785156 560.6875 C 155.417969 559.660156 155.078125 558.628906 154.761719 557.585938 C 154.441406 556.542969 154.152344 555.496094 153.886719 554.4375 C 153.621094 553.382812 153.382812 552.320312 153.167969 551.253906 C 152.953125 550.183594 152.765625 549.113281 152.605469 548.035156 C 152.445312 546.957031 152.3125 545.875 152.203125 544.792969 C 152.09375 543.710938 152.015625 542.625 151.960938 541.535156 C 151.90625 540.449219 151.875 539.359375 151.875 538.269531 L 151.875 292.992188 L 363.488281 413.734375 C 366.640625 415.527344 369.898438 417.113281 373.257812 418.488281 C 376.617188 419.863281 380.050781 421.015625 383.558594 421.945312 C 387.066406 422.875 390.621094 423.574219 394.21875 424.039062 C 397.820312 424.507812 401.433594 424.742188 405.0625 424.742188 C 408.691406 424.742188 412.308594 424.507812 415.90625 424.039062 C 419.503906 423.574219 423.058594 422.875 426.566406 421.945312 C 430.078125 421.015625 433.511719 419.863281 436.871094 418.488281 C 440.230469 417.113281 443.484375 415.527344 446.640625 413.734375 L 658.125 291.980469 Z M 658.125 538.269531 " fill-opacity="1" fill-rule="nonzero"/></svg>