<svg xmlns="http://www.w3.org/2000/svg" xmlns:xlink="http://www.w3.org/1999/xlink" width="1080" zoomAndPan="magnify" viewBox="0 0 810 809.999993" height="1080" preserveAspectRatio="xMidYMid meet" version="1.0"><path fill="#ffffff" d="M 809.398438 650.210938 L 738.402344 650.210938 C 735.277344 650.210938 732.632812 647.695312 732.46875 644.445312 L 732.46875 644.382812 C 732.152344 638.101562 732.980469 632.386719 734.664062 628.082031 C 736.34375 623.796875 738.878906 620.886719 741.984375 620.453125 C 755.367188 618.582031 768.746094 616.710938 782.109375 614.851562 C 775.714844 552.710938 758.015625 499.007812 732.078125 453.753906 C 720.492188 461.332031 708.890625 468.914062 697.289062 476.496094 C 691.867188 479.964844 683.453125 475.597656 677.996094 467.269531 C 675.238281 463.074219 673.710938 458.59375 673.445312 454.621094 C 673.203125 450.636719 674.234375 447.132812 676.742188 445.085938 C 687.523438 436.257812 698.308594 427.425781 709.089844 418.605469 C 678.898438 377.945312 641.300781 345.726562 599.386719 321.941406 C 592.492188 334.195312 585.589844 346.449219 578.707031 358.71875 C 575.457031 364.375 566.25 365.167969 557.898438 361.015625 C 553.695312 358.910156 550.429688 355.921875 548.480469 352.699219 C 546.539062 349.476562 545.941406 346.007812 547.246094 343.015625 C 552.890625 330.125 558.542969 317.246094 564.183594 304.367188 C 520.136719 285.183594 472.585938 274.449219 424.632812 272.148438 C 423.9375 286.175781 423.234375 300.191406 422.539062 314.21875 C 422.167969 320.730469 414.316406 325.582031 405 325.585938 C 400.304688 325.585938 396.054688 324.371094 392.878906 322.339844 C 389.710938 320.320312 387.628906 317.476562 387.457031 314.21875 C 386.761719 300.191406 386.0625 286.175781 385.363281 272.148438 C 337.414062 274.449219 289.863281 285.183594 245.816406 304.367188 C 251.460938 317.246094 257.105469 330.125 262.753906 343.015625 C 265.328125 349.019531 260.445312 356.839844 252.101562 361.015625 C 247.898438 363.105469 243.542969 363.933594 239.792969 363.546875 C 236.046875 363.160156 232.898438 361.558594 231.296875 358.71875 C 224.40625 346.449219 217.503906 334.195312 210.617188 321.941406 C 168.695312 345.726562 131.101562 377.945312 100.90625 418.605469 C 111.691406 427.425781 122.476562 436.257812 133.257812 445.085938 C 138.226562 449.246094 137.464844 458.925781 132.007812 467.269531 C 129.265625 471.472656 125.804688 474.605469 122.34375 476.316406 C 118.894531 478.003906 115.417969 478.261719 112.710938 476.496094 C 101.113281 468.914062 89.511719 461.332031 77.917969 453.753906 C 51.984375 499.007812 34.28125 552.710938 27.890625 614.851562 C 41.257812 616.710938 54.632812 618.582031 68.011719 620.453125 C 74.214844 621.410156 78.152344 631.882812 77.53125 644.382812 L 77.53125 644.445312 C 77.351562 647.695312 74.71875 650.210938 71.601562 650.210938 L 0.601562 650.210938 C 16.890625 110.878906 793.109375 110.878906 809.398438 650.210938 " fill-opacity="1" fill-rule="nonzero"/><path fill="#ffffff" d="M 404.058594 677.542969 C 391.839844 677.542969 381.933594 667.210938 381.933594 654.46875 C 381.933594 641.734375 391.839844 631.410156 404.058594 631.410156 C 416.277344 631.410156 426.179688 641.734375 426.179688 654.46875 C 426.179688 667.210938 416.277344 677.542969 404.058594 677.542969 Z M 547.089844 374.890625 C 546.867188 374.730469 546.574219 374.792969 546.425781 375.003906 L 372.09375 631.769531 C 370.394531 634.289062 368.851562 637.226562 367.730469 640.21875 C 360.195312 660.425781 369.792969 683.164062 389.171875 691.027344 C 408.550781 698.878906 430.371094 688.867188 437.90625 668.671875 L 547.253906 375.484375 C 547.335938 375.269531 547.265625 375.019531 547.089844 374.890625 " fill-opacity="1" fill-rule="nonzero"/></svg>