<svg xmlns="http://www.w3.org/2000/svg" xmlns:xlink="http://www.w3.org/1999/xlink" width="1080" zoomAndPan="magnify" viewBox="0 0 810 809.999993" height="1080" preserveAspectRatio="xMidYMid meet" version="1.0"><defs><clipPath id="50ff2d55f2"><path d="M 57.710938 64 L 752.210938 64 L 752.210938 758 L 57.710938 758 Z M 57.710938 64 " clip-rule="nonzero"/></clipPath></defs><g clip-path="url(#50ff2d55f2)"><path fill="#ffffff" d="M 404.960938 64.027344 C 399.277344 64.035156 393.59375 64.179688 387.917969 64.464844 C 382.238281 64.75 376.570312 65.175781 370.914062 65.738281 C 365.253906 66.300781 359.613281 67.003906 353.992188 67.839844 C 348.367188 68.679688 342.769531 69.65625 337.195312 70.773438 C 331.617188 71.886719 326.074219 73.136719 320.558594 74.523438 C 315.046875 75.90625 309.570312 77.429688 304.128906 79.082031 C 298.691406 80.738281 293.296875 82.523438 287.941406 84.441406 C 282.589844 86.363281 277.289062 88.410156 272.039062 90.589844 C 266.785156 92.769531 261.589844 95.074219 256.453125 97.507812 C 251.316406 99.941406 246.238281 102.5 241.226562 105.183594 C 236.214844 107.867188 231.269531 110.667969 226.394531 113.59375 C 221.519531 116.519531 216.71875 119.5625 211.992188 122.722656 C 207.265625 125.882812 202.617188 129.15625 198.050781 132.546875 C 193.484375 135.933594 189.007812 139.429688 184.613281 143.039062 C 180.21875 146.648438 175.914062 150.359375 171.703125 154.179688 C 167.488281 157.996094 163.371094 161.917969 159.351562 165.9375 C 155.332031 169.957031 151.414062 174.074219 147.59375 178.289062 C 143.777344 182.5 140.0625 186.804688 136.457031 191.199219 C 132.847656 195.59375 129.351562 200.074219 125.964844 204.640625 C 122.574219 209.207031 119.300781 213.855469 116.140625 218.582031 C 112.980469 223.308594 109.9375 228.109375 107.015625 232.984375 C 104.089844 237.863281 101.285156 242.808594 98.605469 247.820312 C 95.921875 252.832031 93.363281 257.910156 90.929688 263.050781 C 88.496094 268.1875 86.191406 273.382812 84.011719 278.636719 C 81.832031 283.886719 79.785156 289.191406 77.867188 294.542969 C 75.945312 299.894531 74.160156 305.289062 72.507812 310.730469 C 70.851562 316.171875 69.332031 321.648438 67.945312 327.164062 C 66.558594 332.675781 65.3125 338.222656 64.195312 343.796875 C 63.082031 349.375 62.105469 354.972656 61.265625 360.597656 C 60.425781 366.222656 59.726562 371.863281 59.164062 377.519531 C 58.601562 383.179688 58.175781 388.847656 57.890625 394.527344 C 57.605469 400.203125 57.460938 405.886719 57.453125 411.574219 C 76.546875 872.636719 733.449219 872.503906 752.472656 411.570312 C 752.464844 405.882812 752.320312 400.203125 752.035156 394.523438 C 751.75 388.84375 751.328125 383.175781 750.761719 377.519531 C 750.199219 371.859375 749.5 366.21875 748.660156 360.59375 C 747.820312 354.972656 746.84375 349.371094 745.730469 343.796875 C 744.617188 338.21875 743.367188 332.675781 741.980469 327.160156 C 740.59375 321.644531 739.074219 316.167969 737.417969 310.726562 C 735.765625 305.289062 733.980469 299.890625 732.058594 294.539062 C 730.140625 289.1875 728.09375 283.886719 725.914062 278.632812 C 723.734375 273.382812 721.429688 268.1875 718.996094 263.046875 C 716.5625 257.90625 714.003906 252.832031 711.320312 247.820312 C 708.640625 242.804688 705.835938 237.859375 702.910156 232.984375 C 699.984375 228.109375 696.945312 223.308594 693.785156 218.578125 C 690.625 213.851562 687.351562 209.207031 683.960938 204.640625 C 680.574219 200.074219 677.078125 195.59375 673.46875 191.199219 C 669.863281 186.804688 666.148438 182.5 662.332031 178.289062 C 658.511719 174.074219 654.59375 169.957031 650.570312 165.9375 C 646.550781 161.917969 642.4375 157.996094 638.222656 154.179688 C 634.011719 150.359375 629.707031 146.644531 625.3125 143.039062 C 620.917969 139.429688 616.4375 135.933594 611.871094 132.542969 C 607.308594 129.15625 602.660156 125.882812 597.933594 122.722656 C 593.207031 119.5625 588.40625 116.519531 583.53125 113.59375 C 578.65625 110.667969 573.710938 107.863281 568.699219 105.183594 C 563.683594 102.5 558.609375 99.941406 553.472656 97.507812 C 548.332031 95.074219 543.136719 92.769531 537.886719 90.589844 C 532.636719 88.410156 527.332031 86.363281 521.980469 84.441406 C 516.628906 82.523438 511.234375 80.738281 505.792969 79.082031 C 500.355469 77.429688 494.878906 75.90625 489.363281 74.523438 C 483.851562 73.136719 478.304688 71.886719 472.730469 70.773438 C 467.15625 69.65625 461.554688 68.679688 455.933594 67.839844 C 450.308594 67.003906 444.667969 66.300781 439.011719 65.738281 C 433.355469 65.175781 427.6875 64.75 422.007812 64.464844 C 416.328125 64.179688 410.648438 64.035156 404.960938 64.027344 Z M 514.273438 636.605469 C 327.554688 640.679688 164.203125 468.289062 178.859375 281.648438 C 176.09375 210.355469 248.0625 171.714844 310.191406 190.355469 C 311.226562 190.640625 312.199219 191.066406 313.113281 191.628906 C 314.023438 192.195312 314.835938 192.878906 315.550781 193.679688 C 316.265625 194.480469 316.851562 195.367188 317.308594 196.335938 C 317.769531 197.304688 318.082031 198.320312 318.246094 199.382812 L 340.894531 342.238281 C 340.316406 359.605469 311.203125 368.800781 297.195312 373.203125 C 298.617188 377.382812 300.160156 381.515625 301.820312 385.601562 C 303.480469 389.691406 305.257812 393.730469 307.148438 397.71875 C 309.039062 401.707031 311.042969 405.636719 313.160156 409.507812 C 315.277344 413.382812 317.5 417.191406 319.832031 420.9375 C 322.167969 424.683594 324.605469 428.359375 327.148438 431.96875 C 329.691406 435.574219 332.335938 439.105469 335.082031 442.558594 C 337.828125 446.015625 340.667969 449.390625 343.605469 452.683594 C 346.546875 455.976562 349.574219 459.183594 352.695312 462.304688 C 355.816406 465.421875 359.023438 468.449219 362.320312 471.386719 C 365.613281 474.324219 368.988281 477.164062 372.445312 479.90625 C 375.902344 482.652344 379.433594 485.292969 383.042969 487.835938 C 386.648438 490.378906 390.328125 492.816406 394.074219 495.148438 C 397.820312 497.476562 401.632812 499.703125 405.503906 501.816406 C 409.378906 503.929688 413.308594 505.929688 417.296875 507.820312 C 421.285156 509.710938 425.324219 511.484375 429.414062 513.140625 C 433.503906 514.800781 437.636719 516.339844 441.816406 517.761719 C 446.371094 503.164062 455.265625 474.628906 472.648438 474.015625 L 615.5 496.652344 C 623.929688 497.335938 625.398438 508.125 627.757812 514.367188 C 648.140625 585.847656 584.066406 645.296875 514.273438 636.605469 Z M 514.273438 636.605469 " fill-opacity="1" fill-rule="nonzero"/></g></svg>